<?xml version="1.0" standalone="no"?>
<!DOCTYPE svg PUBLIC "-//W3C//DTD SVG 20010904//EN"
 "http://www.w3.org/TR/2001/REC-SVG-20010904/DTD/svg10.dtd">
<svg version="1.0" xmlns="http://www.w3.org/2000/svg"
 width="900.000000pt" height="900.000000pt" viewBox="0 0 900.000000 900.000000"
 preserveAspectRatio="xMidYMid meet">
<metadata>
Created by potrace 1.10, written by Peter Selinger 2001-2011
</metadata>
<g transform="translate(0.000000,900.000000) scale(0.100000,-0.100000)"
fill="#000000" stroke="none">
<path d="M4260 8720 c-13 -17 -32 -30 -41 -30 -9 0 -22 -6 -29 -14 -21 -26
-156 -86 -193 -86 -20 0 -39 -4 -42 -10 -3 -6 -50 -10 -106 -10 -76 0 -104 4
-115 15 -15 15 -55 20 -66 9 -4 -3 1 -19 10 -35 17 -30 17 -30 -13 -54 -16
-13 -44 -36 -61 -50 -18 -14 -38 -25 -46 -25 -7 0 -43 -29 -78 -65 -35 -36
-69 -65 -75 -65 -6 0 -26 -13 -45 -30 -19 -16 -40 -29 -47 -30 -7 0 -34 -21
-61 -47 -26 -27 -61 -56 -78 -65 -16 -10 -36 -22 -44 -27 -8 -5 -23 -12 -32
-15 -10 -3 -18 -14 -18 -23 0 -10 -29 -48 -65 -83 -36 -35 -65 -70 -65 -76 0
-6 -11 -23 -25 -38 -14 -15 -25 -33 -25 -40 0 -7 -11 -23 -25 -36 -14 -13 -36
-47 -49 -75 -14 -28 -34 -59 -45 -69 -12 -11 -21 -27 -21 -36 0 -10 -7 -23
-15 -30 -8 -7 -15 -22 -15 -33 0 -22 -15 -73 -37 -124 -17 -41 -17 -98 2 -113
20 -17 19 -24 -11 -60 -24 -27 -27 -39 -25 -98 1 -43 -4 -77 -14 -96 -8 -15
-15 -50 -15 -76 0 -30 -6 -52 -15 -60 -11 -9 -15 -33 -15 -90 0 -56 -5 -87
-17 -110 -17 -29 -17 -31 0 -41 14 -8 17 -24 17 -89 0 -68 4 -86 31 -139 30
-58 31 -62 15 -86 -9 -13 -16 -35 -16 -47 0 -13 -7 -32 -15 -42 -8 -11 -15
-36 -15 -57 0 -20 -7 -42 -15 -49 -12 -10 -15 -38 -15 -135 0 -97 3 -125 15
-135 8 -7 15 -24 15 -39 0 -14 7 -35 15 -45 8 -11 15 -27 15 -36 0 -24 35 -93
59 -114 12 -11 21 -27 21 -37 0 -10 5 -21 10 -24 6 -3 10 -17 10 -30 0 -13 11
-37 25 -53 15 -18 25 -42 25 -61 0 -19 6 -34 15 -37 8 -4 15 -18 15 -33 0 -15
7 -36 15 -47 8 -10 15 -30 15 -44 0 -14 7 -34 15 -44 8 -11 15 -30 15 -42 0
-13 11 -35 25 -50 30 -32 35 -98 9 -108 -26 -10 -51 -7 -64 9 -7 8 -19 15 -26
15 -20 0 -17 -40 4 -46 9 -3 24 -10 32 -15 46 -28 97 -49 117 -49 14 0 26 -7
29 -17 3 -10 11 -28 17 -40 7 -17 7 -30 -1 -48 -7 -14 -12 -35 -12 -46 0 -11
-10 -24 -24 -30 -21 -10 -22 -13 -11 -45 14 -42 60 -92 89 -96 15 -2 22 -11
24 -32 2 -16 10 -39 17 -50 9 -14 15 -62 16 -143 l3 -123 -31 -32 c-17 -18
-33 -42 -35 -53 -2 -11 -12 -21 -23 -23 -11 -2 -33 -16 -50 -32 -16 -15 -46
-35 -65 -45 -19 -10 -42 -22 -50 -26 -8 -5 -28 -15 -45 -23 -16 -7 -41 -26
-55 -41 -14 -15 -41 -35 -60 -45 -19 -10 -53 -37 -75 -59 -21 -23 -44 -41 -50
-41 -14 0 -179 -171 -217 -225 -16 -21 -28 -43 -28 -50 0 -6 -14 -18 -32 -26
-17 -8 -35 -22 -40 -31 -4 -10 -12 -26 -16 -35 -5 -10 -22 -24 -38 -32 -39
-18 -404 -381 -404 -402 0 -9 -7 -22 -15 -29 -8 -7 -15 -21 -15 -32 0 -11 -14
-27 -35 -39 -19 -12 -35 -24 -35 -29 0 -4 -37 -46 -82 -93 -67 -68 -89 -99
-112 -156 -17 -39 -33 -71 -38 -71 -12 0 -10 -208 2 -215 5 -3 10 -29 10 -57
0 -27 7 -65 15 -82 12 -24 15 -58 13 -127 l-3 -94 -47 -25 c-26 -14 -70 -47
-98 -73 -28 -26 -56 -47 -64 -47 -7 0 -19 -7 -26 -15 -7 -8 -20 -15 -28 -15
-9 0 -32 -16 -52 -35 -20 -19 -74 -54 -120 -78 -62 -31 -86 -49 -88 -64 -2
-12 -10 -27 -18 -33 -8 -7 -14 -20 -14 -29 0 -9 -14 -29 -30 -45 -17 -16 -30
-34 -30 -41 0 -13 -43 -54 -85 -80 -16 -10 -34 -24 -38 -32 -4 -7 -16 -13 -26
-13 -9 0 -30 -14 -46 -30 -16 -17 -36 -30 -45 -30 -9 0 -25 -9 -34 -19 -10
-11 -31 -25 -47 -31 -16 -7 -29 -17 -29 -22 0 -5 -16 -16 -35 -24 -22 -9 -35
-21 -35 -33 0 -10 -7 -21 -15 -25 -8 -3 -15 -16 -15 -30 0 -13 -7 -26 -15 -30
-8 -3 -15 -14 -15 -25 0 -11 -4 -23 -10 -26 -5 -3 -10 -17 -10 -30 0 -15 -11
-32 -32 -46 -95 -68 -208 -223 -208 -285 0 -12 -6 -27 -14 -33 -16 -14 -24
-66 -35 -236 -7 -115 -23 -185 -42 -185 -5 0 -9 -15 -9 -34 0 -18 -7 -39 -15
-46 -9 -8 -15 -29 -15 -56 0 -23 -4 -46 -10 -49 -5 -3 -10 -28 -10 -56 l0 -49
4500 0 4500 0 0 49 c0 40 -3 50 -20 54 -14 4 -20 14 -20 34 0 15 -7 37 -15 47
-8 11 -15 39 -15 63 0 24 -4 43 -10 43 -5 0 -10 16 -10 35 0 19 -6 49 -14 67
-20 47 -36 102 -36 120 0 9 -11 30 -25 46 -14 17 -25 41 -25 55 0 13 -7 30
-15 37 -8 7 -15 20 -15 30 0 10 -7 23 -15 30 -8 7 -15 22 -15 34 0 29 -55 132
-90 171 -15 17 -35 44 -43 60 -17 34 -46 63 -80 79 -14 8 -23 22 -25 43 -2 17
-10 37 -18 43 -8 7 -14 19 -14 27 0 12 -17 30 -122 125 -17 15 -64 44 -106 65
-55 27 -78 44 -86 64 -5 15 -20 32 -33 38 -33 15 -123 101 -123 117 0 7 -13
28 -29 46 -16 18 -30 42 -32 52 -6 28 -87 74 -130 75 -21 1 -57 12 -80 26 -24
14 -56 25 -71 25 -16 0 -28 5 -28 10 0 6 -10 10 -23 10 -13 0 -33 13 -47 30
-17 19 -34 29 -54 30 -15 0 -42 12 -60 26 -68 55 -109 84 -123 84 -7 0 -18 11
-23 25 -5 14 -15 25 -22 25 -16 0 -213 198 -221 222 -8 23 -81 68 -111 68 -13
0 -29 7 -36 15 -7 8 -20 15 -30 15 -10 0 -23 7 -30 15 -7 8 -27 15 -45 15 -18
0 -38 6 -44 13 -6 8 -30 20 -53 27 -97 29 -115 42 -147 105 -17 33 -31 64 -31
69 0 5 -6 17 -13 25 -7 9 -26 45 -41 81 -16 36 -39 76 -52 91 -13 14 -24 33
-24 42 0 10 -7 20 -15 23 -8 4 -15 13 -15 21 0 18 -28 70 -54 100 -19 23 -26
33 -61 93 -11 19 -54 71 -96 115 -50 52 -79 91 -84 112 -3 18 -17 52 -29 75
l-23 43 25 50 c13 27 28 57 32 65 55 101 110 219 110 237 0 25 34 40 54 23 8
-6 17 -21 20 -34 8 -32 54 -62 70 -46 8 8 4 18 -19 39 -27 24 -30 32 -27 73 2
28 -2 57 -12 76 -20 39 -21 86 -1 102 8 7 15 20 15 29 0 9 7 24 15 34 7 11 11
25 9 31 -3 7 16 36 41 63 25 28 45 56 45 62 0 6 14 24 30 41 17 17 30 35 30
39 0 18 54 91 72 97 10 3 18 14 18 24 0 10 14 30 30 43 17 14 30 34 30 45 0
11 7 25 15 32 8 7 15 21 15 32 0 26 33 89 59 112 12 11 21 25 21 33 0 7 4 21
9 31 6 9 12 29 15 44 4 15 22 42 41 61 26 25 35 43 35 66 0 19 6 34 15 37 8 4
15 16 15 29 0 12 7 28 15 35 9 8 15 30 15 59 0 70 28 115 140 226 55 54 100
105 100 111 0 7 14 28 30 46 17 18 30 37 30 43 0 6 16 41 35 78 19 37 35 78
35 91 0 14 4 28 10 31 5 3 10 23 10 43 0 20 7 46 15 56 8 11 15 39 15 62 0 25
6 47 15 54 12 10 15 37 15 120 0 83 3 110 15 120 8 7 15 20 15 30 0 10 7 24
16 31 12 10 15 25 11 56 -3 27 0 49 9 60 18 24 20 583 2 616 -6 12 -10 39 -10
60 1 25 -3 40 -13 43 -9 4 -15 19 -15 39 0 20 -8 39 -21 51 -26 23 -69 106
-69 133 0 11 -4 22 -9 25 -4 3 -11 24 -15 46 -3 22 -11 40 -17 40 -5 0 -21 24
-35 53 -14 28 -30 60 -37 69 -9 14 -7 22 16 46 15 15 27 35 27 44 0 9 5 20 10
23 11 7 14 68 4 78 -4 4 -26 -14 -49 -39 l-42 -45 -43 22 c-23 12 -44 29 -47
38 -8 21 -84 101 -98 101 -17 1 -55 37 -55 53 0 7 -9 22 -21 33 -12 10 -28 32
-36 49 -9 16 -23 39 -33 50 -10 11 -20 33 -22 50 -2 21 -13 36 -38 52 -19 12
-47 31 -62 42 -14 12 -40 21 -57 21 -41 0 -158 59 -195 99 -19 19 -40 31 -56
31 -29 0 -50 16 -50 38 0 25 -33 41 -86 42 -33 0 -56 5 -64 15 -7 8 -23 15
-37 15 -13 0 -37 7 -52 15 -16 8 -31 12 -33 9 -3 -3 -27 7 -54 21 -32 17 -65
26 -94 27 -24 0 -57 6 -72 14 -15 8 -56 14 -93 14 -49 0 -67 4 -71 15 -4 11
-21 15 -57 15 -48 0 -129 29 -143 51 -3 5 -17 9 -32 9 -15 0 -39 12 -57 29
-51 49 -103 71 -167 71 -43 0 -69 6 -102 25 -33 18 -60 25 -101 25 -40 0 -57
4 -61 15 -5 13 -51 15 -333 15 l-326 -1 -25 -29z m1375 -2410 c21 -18 55 -88
55 -114 0 -13 7 -26 15 -30 9 -3 15 -18 15 -34 0 -16 11 -50 25 -76 14 -26 25
-59 25 -73 0 -15 12 -60 26 -101 30 -88 27 -113 -24 -159 -32 -29 -42 -33 -93
-33 -38 0 -61 -5 -69 -15 -10 -12 -41 -15 -159 -15 -112 -1 -150 -4 -165 -15
-11 -8 -37 -15 -59 -15 -21 0 -45 -7 -54 -15 -8 -8 -19 -13 -24 -10 -13 9 -47
-13 -54 -34 -7 -22 -56 -54 -98 -65 -17 -4 -27 -13 -27 -25 0 -10 -7 -24 -15
-31 -24 -20 -18 -59 15 -97 21 -24 30 -44 30 -69 0 -19 6 -45 14 -57 7 -12 14
-37 14 -56 1 -18 6 -39 11 -44 6 -6 11 -24 11 -39 0 -35 33 -135 66 -200 21
-40 29 -48 53 -48 16 0 34 -7 41 -15 9 -11 34 -15 100 -15 74 0 94 -4 134 -25
26 -14 62 -25 80 -25 18 0 41 -7 52 -15 10 -8 38 -15 60 -15 24 0 47 -6 54
-15 7 -9 30 -15 54 -15 22 0 50 -7 60 -15 11 -8 29 -15 40 -15 29 0 86 -59 86
-89 0 -15 7 -35 15 -45 9 -12 15 -42 15 -72 0 -42 -5 -58 -30 -89 -17 -21 -30
-50 -30 -65 0 -16 -7 -30 -15 -34 -8 -3 -15 -16 -15 -30 0 -13 -7 -26 -15 -30
-8 -3 -15 -14 -15 -23 0 -10 -34 -52 -75 -93 -41 -41 -75 -81 -75 -90 0 -8
-11 -25 -24 -37 -13 -12 -40 -57 -61 -100 -45 -93 -58 -109 -109 -134 -57 -27
-94 -25 -102 6 -6 25 -7 25 -120 25 -94 0 -116 3 -121 15 -6 18 20 51 56 68
16 7 28 24 31 42 4 17 12 40 18 52 18 34 16 227 -3 243 -8 7 -15 21 -15 32 0
10 -7 21 -15 24 -8 4 -15 18 -15 34 0 15 -18 60 -40 100 -22 40 -40 84 -40 97
0 15 -17 42 -43 70 -39 41 -46 44 -65 34 -20 -11 -22 -20 -22 -90 0 -58 4 -82
15 -91 8 -7 15 -25 15 -41 0 -15 5 -31 10 -34 16 -10 12 -83 -7 -113 -30 -48
-56 -72 -79 -72 -12 0 -45 -11 -72 -25 -56 -28 -104 -32 -122 -10 -7 8 -18 15
-24 15 -7 0 -43 16 -82 35 -74 37 -85 40 -112 26 -71 -36 -70 -36 -102 -5 -21
20 -30 39 -30 62 0 56 -25 51 -96 -19 -35 -35 -64 -69 -64 -76 0 -26 20 -21
53 12 19 19 40 35 46 35 6 0 19 -17 30 -37 11 -21 40 -58 65 -83 34 -33 46
-52 46 -74 0 -22 11 -40 43 -70 50 -49 87 -108 87 -141 0 -15 23 -46 71 -93
39 -39 69 -77 67 -84 -6 -18 -288 -24 -299 -6 -9 15 -137 14 -152 -1 -7 -7
-53 -11 -118 -11 -82 0 -109 -3 -119 -15 -7 -8 -27 -15 -44 -15 -18 0 -37 -5
-42 -10 -6 -6 -28 -19 -49 -30 -29 -15 -42 -17 -52 -8 -7 6 -16 9 -19 6 -8 -9
97 -118 108 -112 5 3 6 19 3 35 -10 45 8 59 74 59 31 -1 67 -7 81 -15 14 -7
37 -11 51 -8 16 3 30 -1 38 -11 8 -10 29 -16 55 -16 23 0 52 -7 64 -16 13 -9
33 -14 44 -11 12 3 34 -1 49 -9 15 -7 39 -14 52 -14 14 0 30 -7 37 -15 16 -20
86 -19 124 0 35 19 56 13 56 -15 0 -15 -7 -20 -26 -20 -15 0 -41 -13 -61 -30
-32 -28 -38 -30 -121 -30 -62 0 -94 4 -108 15 -10 8 -38 15 -60 15 -28 0 -44
5 -48 15 -9 25 -104 20 -133 -7 -13 -12 -23 -28 -23 -36 0 -20 29 -52 47 -52
7 0 33 -18 57 -40 24 -22 52 -40 64 -40 11 0 40 -11 63 -25 24 -14 56 -25 70
-25 15 0 32 -7 39 -15 7 -8 20 -15 30 -15 10 0 23 -7 30 -15 7 -8 23 -15 35
-15 13 0 43 -11 66 -25 32 -18 59 -25 97 -25 29 0 69 -7 89 -15 19 -8 43 -15
53 -15 10 0 24 -7 31 -17 8 -9 29 -22 47 -30 17 -7 32 -20 32 -28 0 -27 -101
-115 -132 -115 -15 0 -30 -4 -33 -10 -3 -6 -26 -10 -49 -10 -27 0 -48 -6 -56
-15 -18 -22 -192 -22 -210 0 -7 8 -27 15 -45 15 -35 0 -100 23 -110 40 -3 5
-21 10 -39 10 -19 0 -39 7 -46 15 -7 8 -20 15 -29 15 -9 0 -29 14 -45 30 -16
17 -34 30 -40 30 -6 0 -56 45 -111 100 -90 90 -99 102 -87 120 16 26 15 67 -2
77 -19 12 -36 48 -36 80 0 39 -7 47 -75 83 -83 43 -125 75 -146 109 -10 16
-22 32 -28 35 -6 4 -11 15 -11 25 0 10 -7 24 -15 31 -8 7 -15 25 -15 41 0 15
-5 31 -10 34 -6 3 -10 19 -10 34 0 17 -11 38 -30 57 -16 16 -30 36 -30 45 0 9
-7 22 -15 29 -8 7 -15 20 -15 28 0 9 -20 37 -44 62 -47 49 -106 150 -106 184
0 12 -7 30 -15 40 -9 12 -15 42 -15 72 0 34 -5 56 -15 64 -22 18 -22 317 0
346 11 15 14 54 15 180 0 134 3 163 15 168 8 3 15 18 15 34 0 41 35 102 70
123 27 17 30 23 30 73 0 57 7 66 55 66 12 0 28 7 35 15 17 20 66 12 123 -19
33 -19 60 -26 100 -26 36 0 59 -5 67 -15 7 -8 29 -15 49 -15 20 0 45 -7 55
-15 11 -8 32 -15 46 -15 14 0 31 -5 37 -11 13 -13 208 -15 226 -2 41 28 88 44
123 41 38 -3 39 -4 44 -48 7 -60 30 -64 81 -14 44 43 79 108 79 146 0 27 55
154 71 164 5 3 9 36 9 73 0 59 3 70 25 91 48 45 21 129 -41 130 -30 0 -191 89
-231 127 -26 25 -30 65 -8 83 10 8 15 31 15 66 0 29 5 56 10 59 6 3 10 14 10
23 0 23 116 137 155 153 32 14 165 26 380 35 82 3 142 10 162 19 22 11 70 15
170 15 93 1 143 5 154 13 20 15 165 13 184 -3z m-1451 -671 c20 -12 34 -24 31
-28 -7 -12 -169 -3 -173 9 -2 5 -36 10 -77 10 -68 0 -94 8 -78 24 3 3 64 6
134 6 112 0 132 -3 163 -21z m67 -95 c6 -8 18 -14 25 -14 8 0 14 -4 14 -10 0
-16 -70 -12 -76 5 -4 11 -21 15 -55 15 -27 0 -49 4 -49 9 0 14 128 10 141 -5z
m-55 -109 c9 -8 24 -15 35 -15 10 0 19 -5 19 -10 0 -6 12 -15 26 -21 26 -9 26
-10 9 -29 -23 -26 -126 -28 -174 -4 -18 9 -43 14 -57 11 -29 -5 -38 6 -25 30
5 10 12 26 15 36 4 14 17 17 71 17 46 0 71 -5 81 -15z m-1200 -156 c4 -21 10
-39 15 -39 5 0 9 -11 9 -25 0 -14 7 -28 15 -31 8 -4 15 -14 15 -24 0 -9 9 -25
21 -36 22 -20 49 -66 49 -84 0 -5 -9 -10 -20 -10 -11 0 -20 7 -20 15 0 8 -18
34 -40 56 -22 23 -40 47 -40 54 0 6 -10 20 -21 31 -46 41 -74 145 -46 173 18
18 55 -29 63 -80z m881 50 c15 -6 53 -11 85 -10 32 1 72 -5 93 -14 22 -8 67
-15 107 -15 47 0 77 -5 94 -17 21 -14 34 -15 74 -7 26 6 52 8 59 6 16 -5 14
-28 -5 -46 -22 -23 -305 -24 -324 -1 -9 10 -32 15 -77 15 -38 0 -76 6 -94 16
-16 8 -38 13 -48 9 -9 -3 -26 2 -37 10 -10 8 -27 15 -36 15 -21 0 -32 16 -24
35 7 18 91 20 133 4z m1922 -3 c-7 -7 -209 -9 -216 -2 -4 3 45 6 107 6 62 0
111 -2 109 -4z m61 -16 c0 -13 -11 -13 -30 0 -12 8 -11 10 8 10 12 0 22 -4 22
-10z m60 -30 c0 -5 -9 -10 -19 -10 -11 0 -23 5 -26 10 -4 6 5 10 19 10 14 0
26 -4 26 -10z m54 -25 c8 -8 21 -15 30 -15 8 0 20 -8 25 -19 9 -16 7 -17 -15
-13 -14 2 -28 11 -31 18 -3 8 -16 14 -29 14 -15 0 -24 6 -24 15 0 8 6 15 14
15 8 0 21 -7 30 -15z m-156 -87 c7 -7 33 -15 60 -18 44 -5 47 -7 47 -35 l0
-30 -128 -3 c-108 -2 -128 0 -133 13 -4 9 1 24 10 34 9 10 16 25 16 34 0 14
10 17 58 17 32 0 63 -5 70 -12z m-346 -102 c72 -30 125 -43 159 -39 24 3 39 0
48 -11 8 -10 30 -16 55 -16 22 0 50 -7 60 -15 27 -20 102 -20 110 1 4 11 17
14 51 12 62 -4 62 -22 0 -26 -30 -2 -53 -9 -58 -18 -12 -21 -189 -20 -207 1
-8 10 -31 15 -70 15 -39 0 -62 5 -70 15 -7 8 -25 15 -41 15 -15 0 -30 4 -33 9
-3 4 -29 11 -57 14 -47 6 -78 25 -79 50 0 12 98 8 132 -7z m1036 -519 c5 -23
-25 -57 -49 -57 -10 0 -26 -11 -37 -25 -24 -30 -42 -32 -42 -6 0 24 89 112
110 108 8 -1 16 -10 18 -20z m-3158 -1454 c0 -23 5 -43 10 -45 6 -2 13 -18 15
-35 2 -17 13 -50 24 -72 12 -22 21 -51 21 -64 0 -14 7 -30 15 -37 8 -7 15 -25
15 -39 0 -16 10 -37 25 -51 14 -13 25 -28 25 -33 0 -20 53 -79 79 -88 18 -7
33 -26 50 -64 14 -30 28 -55 32 -55 5 0 15 -15 24 -34 9 -19 25 -42 36 -52 12
-10 19 -30 19 -51 0 -21 6 -36 15 -39 8 -4 15 -18 15 -33 0 -15 7 -36 15 -47
8 -10 15 -30 15 -44 0 -14 7 -34 15 -44 8 -11 15 -34 15 -50 0 -17 15 -62 34
-101 18 -38 36 -77 40 -85 3 -8 10 -22 14 -30 45 -78 43 -120 -3 -70 -10 11
-24 20 -30 20 -7 0 -18 7 -25 15 -7 8 -20 15 -30 15 -10 0 -23 7 -30 15 -7 8
-19 15 -28 15 -9 0 -26 10 -39 22 -13 12 -47 34 -76 48 -29 14 -57 36 -64 49
-6 14 -23 37 -37 52 -16 16 -26 39 -26 57 0 17 -9 37 -21 48 -28 25 -72 114
-94 189 -9 33 -24 77 -32 97 -10 23 -13 51 -10 73 4 23 1 40 -9 49 -9 10 -14
36 -14 79 0 45 -5 68 -15 77 -12 10 -15 46 -15 205 0 105 3 195 7 198 12 12
23 -16 23 -60z"/>
<path d="M4513 4471 c-22 -18 -43 -91 -26 -91 21 0 52 32 58 61 9 40 -4 52
-32 30z"/>
</g>
</svg>
